# MagicaVoxel @ Ephtracy

# group
o 

# material
mtllib untitled-0.mtl
usemtl palette

# normals
vn -1 0 0
vn 1 0 0
vn 0 0 1
vn 0 0 -1
vn 0 -1 0
vn 0 1 0

# texcoords
vt 0.978516 0.5
vt 0.982422 0.5
vt 0.986328 0.5
vt 0.990234 0.5
vt 0.994141 0.5

# verts
v 2.8 -0.1 -0.8
v 2.8 -0.1 -1.1
v 2.8 -0.1 -1.5
v 2.8 -0.1 -1.8
v 2.8 0 -0.9
v 2.8 0 -1
v 2.8 0 -1.6
v 2.8 0 -1.7
v 2.8 0.1 -0.9
v 2.8 0.1 -1
v 2.8 0.1 -1.6
v 2.8 0.1 -1.7
v 2.8 0.2 -0.8
v 2.8 0.2 -1.1
v 2.8 0.2 -1.5
v 2.8 0.2 -1.8
v 2.9 -0.1 -0.3
v 2.9 -0.1 -0.8
v 2.9 -0.1 -1.1
v 2.9 -0.1 -1.5
v 2.9 -0.1 -1.8
v 2.9 -0.1 -2.3
v 2.9 0.2 -0.8
v 2.9 0.2 -1.1
v 2.9 0.2 -1.5
v 2.9 0.2 -1.8
v 2.9 0.3 -0.3
v 2.9 0.3 -0.7
v 2.9 0.3 -1.9
v 2.9 0.3 -2.3
v 2.9 0.9 -0.7
v 2.9 0.9 -1.9
v 3.8 -0.1 -0.3
v 3.8 -0.1 -0.8
v 3.8 -0.1 -1.1
v 3.8 -0.1 -1.5
v 3.8 -0.1 -1.8
v 3.8 -0.1 -2.3
v 3.8 0.2 -0.8
v 3.8 0.2 -1.1
v 3.8 0.2 -1.5
v 3.8 0.2 -1.8
v 3.8 0.3 -0.3
v 3.8 0.3 -0.7
v 3.8 0.3 -1.9
v 3.8 0.3 -2.3
v 3.8 0.9 -0.7
v 3.8 0.9 -1.9
v 3.9 -0.1 -0.8
v 3.9 -0.1 -1.1
v 3.9 -0.1 -1.5
v 3.9 -0.1 -1.8
v 3.9 0 -0.9
v 3.9 0 -1
v 3.9 0 -1.6
v 3.9 0 -1.7
v 3.9 0.1 -0.9
v 3.9 0.1 -1
v 3.9 0.1 -1.6
v 3.9 0.1 -1.7
v 3.9 0.2 -0.8
v 3.9 0.2 -1.1
v 3.9 0.2 -1.5
v 3.9 0.2 -1.8
v 2.9 -0.1 -0.3
v 2.9 0.3 -0.3
v 3 0 -0.3
v 3 0.2 -0.3
v 3.2 0 -0.3
v 3.2 0.2 -0.3
v 3.5 0 -0.3
v 3.5 0.2 -0.3
v 3.7 0 -0.3
v 3.7 0.2 -0.3
v 3.8 -0.1 -0.3
v 3.8 0.3 -0.3
v 2.9 0.3 -0.7
v 2.9 0.9 -0.7
v 3.8 0.3 -0.7
v 3.8 0.9 -0.7
v 2.8 -0.1 -0.8
v 2.8 0.2 -0.8
v 2.9 -0.1 -0.8
v 2.9 0.2 -0.8
v 3.8 -0.1 -0.8
v 3.8 0.2 -0.8
v 3.9 -0.1 -0.8
v 3.9 0.2 -0.8
v 2.8 -0.1 -1.5
v 2.8 0.2 -1.5
v 2.9 -0.1 -1.5
v 2.9 0.2 -1.5
v 3.8 -0.1 -1.5
v 3.8 0.2 -1.5
v 3.9 -0.1 -1.5
v 3.9 0.2 -1.5
v 2.8 -0.1 -1.1
v 2.8 0.2 -1.1
v 2.9 -0.1 -1.1
v 2.9 0.2 -1.1
v 3.8 -0.1 -1.1
v 3.8 0.2 -1.1
v 3.9 -0.1 -1.1
v 3.9 0.2 -1.1
v 2.8 -0.1 -1.8
v 2.8 0.2 -1.8
v 2.9 -0.1 -1.8
v 2.9 0.2 -1.8
v 3.8 -0.1 -1.8
v 3.8 0.2 -1.8
v 3.9 -0.1 -1.8
v 3.9 0.2 -1.8
v 2.9 0.3 -1.9
v 2.9 0.9 -1.9
v 3.8 0.3 -1.9
v 3.8 0.9 -1.9
v 2.9 -0.1 -2.3
v 2.9 0.3 -2.3
v 3 0.1 -2.3
v 3 0.3 -2.3
v 3.2 0.1 -2.3
v 3.2 0.3 -2.3
v 3.5 0.1 -2.3
v 3.5 0.3 -2.3
v 3.7 0.1 -2.3
v 3.7 0.3 -2.3
v 3.8 -0.1 -2.3
v 3.8 0.3 -2.3
v 2.9 -0.1 -0.3
v 3.8 -0.1 -0.3
v 2.8 -0.1 -0.8
v 2.9 -0.1 -0.8
v 3 -0.1 -0.8
v 3.7 -0.1 -0.8
v 3.8 -0.1 -0.8
v 3.9 -0.1 -0.8
v 2.8 -0.1 -1.1
v 2.9 -0.1 -1.1
v 3 -0.1 -1.1
v 3.7 -0.1 -1.1
v 3.8 -0.1 -1.1
v 3.9 -0.1 -1.1
v 2.8 -0.1 -1.5
v 2.9 -0.1 -1.5
v 3 -0.1 -1.5
v 3.7 -0.1 -1.5
v 3.8 -0.1 -1.5
v 3.9 -0.1 -1.5
v 2.8 -0.1 -1.8
v 2.9 -0.1 -1.8
v 3 -0.1 -1.8
v 3.7 -0.1 -1.8
v 3.8 -0.1 -1.8
v 3.9 -0.1 -1.8
v 2.9 -0.1 -2.3
v 3.8 -0.1 -2.3
v 2.8 0.2 -0.8
v 2.9 0.2 -0.8
v 3.8 0.2 -0.8
v 3.9 0.2 -0.8
v 2.8 0.2 -1.1
v 2.9 0.2 -1.1
v 3.8 0.2 -1.1
v 3.9 0.2 -1.1
v 2.8 0.2 -1.5
v 2.9 0.2 -1.5
v 3.8 0.2 -1.5
v 3.9 0.2 -1.5
v 2.8 0.2 -1.8
v 2.9 0.2 -1.8
v 3.8 0.2 -1.8
v 3.9 0.2 -1.8
v 2.9 0.3 -0.3
v 3.8 0.3 -0.3
v 2.9 0.3 -0.7
v 3.8 0.3 -0.7
v 2.9 0.3 -1.9
v 3.8 0.3 -1.9
v 3 0.3 -2.2
v 3.2 0.3 -2.2
v 3.5 0.3 -2.2
v 3.7 0.3 -2.2
v 2.9 0.3 -2.3
v 3 0.3 -2.3
v 3.2 0.3 -2.3
v 3.5 0.3 -2.3
v 3.7 0.3 -2.3
v 3.8 0.3 -2.3
v 2.9 0.9 -0.7
v 3.8 0.9 -0.7
v 2.9 0.9 -1.9
v 3.8 0.9 -1.9

# faces
f 5/3/1 2/3/1 1/3/1
f 6/3/1 2/3/1 5/3/1
f 7/3/1 4/3/1 3/3/1
f 8/3/1 4/3/1 7/3/1
f 9/3/1 5/3/1 1/3/1
f 9/4/1 6/4/1 5/4/1
f 10/3/1 2/3/1 6/3/1
f 10/4/1 6/4/1 9/4/1
f 11/4/1 8/4/1 7/4/1
f 11/3/1 7/3/1 3/3/1
f 12/3/1 4/3/1 8/3/1
f 12/4/1 8/4/1 11/4/1
f 13/3/1 9/3/1 1/3/1
f 13/3/1 10/3/1 9/3/1
f 14/3/1 2/3/1 10/3/1
f 14/3/1 10/3/1 13/3/1
f 15/3/1 11/3/1 3/3/1
f 15/3/1 12/3/1 11/3/1
f 16/3/1 4/3/1 12/3/1
f 16/3/1 12/3/1 15/3/1
f 23/1/1 18/1/1 17/1/1
f 24/1/1 20/1/1 19/1/1
f 25/1/1 20/1/1 24/1/1
f 26/1/1 22/1/1 21/1/1
f 27/1/1 25/1/1 24/1/1
f 27/1/1 26/1/1 25/1/1
f 27/1/1 23/1/1 17/1/1
f 27/1/1 24/1/1 23/1/1
f 28/1/1 26/1/1 27/1/1
f 29/1/1 22/1/1 26/1/1
f 29/1/1 26/1/1 28/1/1
f 30/1/1 22/1/1 29/1/1
f 31/1/1 29/1/1 28/1/1
f 32/1/1 29/1/1 31/1/1
f 33/1/2 34/1/2 39/1/2
f 35/1/2 36/1/2 40/1/2
f 40/1/2 36/1/2 41/1/2
f 37/1/2 38/1/2 42/1/2
f 40/1/2 41/1/2 43/1/2
f 41/1/2 42/1/2 43/1/2
f 33/1/2 39/1/2 43/1/2
f 39/1/2 40/1/2 43/1/2
f 43/1/2 42/1/2 44/1/2
f 42/1/2 38/1/2 45/1/2
f 44/1/2 42/1/2 45/1/2
f 45/1/2 38/1/2 46/1/2
f 44/1/2 45/1/2 47/1/2
f 47/1/2 45/1/2 48/1/2
f 49/3/2 50/3/2 53/3/2
f 53/3/2 50/3/2 54/3/2
f 51/3/2 52/3/2 55/3/2
f 55/3/2 52/3/2 56/3/2
f 49/3/2 53/3/2 57/3/2
f 53/4/2 54/4/2 57/4/2
f 54/3/2 50/3/2 58/3/2
f 57/4/2 54/4/2 58/4/2
f 55/4/2 56/4/2 59/4/2
f 51/3/2 55/3/2 59/3/2
f 56/3/2 52/3/2 60/3/2
f 59/4/2 56/4/2 60/4/2
f 49/3/2 57/3/2 61/3/2
f 57/3/2 58/3/2 61/3/2
f 58/3/2 50/3/2 62/3/2
f 61/3/2 58/3/2 62/3/2
f 51/3/2 59/3/2 63/3/2
f 59/3/2 60/3/2 63/3/2
f 60/3/2 52/3/2 64/3/2
f 63/3/2 60/3/2 64/3/2
f 67/1/3 66/1/3 65/1/3
f 68/1/3 66/1/3 67/1/3
f 69/1/3 67/1/3 65/1/3
f 69/2/3 68/2/3 67/2/3
f 70/1/3 66/1/3 68/1/3
f 70/2/3 68/2/3 69/2/3
f 71/1/3 69/1/3 65/1/3
f 71/1/3 70/1/3 69/1/3
f 72/1/3 66/1/3 70/1/3
f 72/1/3 70/1/3 71/1/3
f 73/1/3 71/1/3 65/1/3
f 73/2/3 72/2/3 71/2/3
f 74/1/3 66/1/3 72/1/3
f 74/2/3 72/2/3 73/2/3
f 75/1/3 73/1/3 65/1/3
f 75/1/3 74/1/3 73/1/3
f 76/1/3 66/1/3 74/1/3
f 76/1/3 74/1/3 75/1/3
f 79/1/3 78/1/3 77/1/3
f 80/1/3 78/1/3 79/1/3
f 83/3/3 82/3/3 81/3/3
f 84/3/3 82/3/3 83/3/3
f 87/3/3 86/3/3 85/3/3
f 88/3/3 86/3/3 87/3/3
f 91/3/3 90/3/3 89/3/3
f 92/3/3 90/3/3 91/3/3
f 95/3/3 94/3/3 93/3/3
f 96/3/3 94/3/3 95/3/3
f 97/3/4 98/3/4 99/3/4
f 99/3/4 98/3/4 100/3/4
f 101/3/4 102/3/4 103/3/4
f 103/3/4 102/3/4 104/3/4
f 105/3/4 106/3/4 107/3/4
f 107/3/4 106/3/4 108/3/4
f 109/3/4 110/3/4 111/3/4
f 111/3/4 110/3/4 112/3/4
f 113/1/4 114/1/4 115/1/4
f 115/1/4 114/1/4 116/1/4
f 117/1/4 118/1/4 119/1/4
f 119/1/4 118/1/4 120/1/4
f 117/1/4 119/1/4 121/1/4
f 119/5/4 120/5/4 121/5/4
f 121/5/4 120/5/4 122/5/4
f 117/1/4 121/1/4 123/1/4
f 121/1/4 122/1/4 123/1/4
f 123/1/4 122/1/4 124/1/4
f 117/1/4 123/1/4 125/1/4
f 123/5/4 124/5/4 125/5/4
f 125/5/4 124/5/4 126/5/4
f 117/1/4 125/1/4 127/1/4
f 125/1/4 126/1/4 127/1/4
f 127/1/4 126/1/4 128/1/4
f 132/1/5 130/1/5 129/1/5
f 133/1/5 130/1/5 132/1/5
f 134/1/5 130/1/5 133/1/5
f 135/1/5 130/1/5 134/1/5
f 137/3/5 132/3/5 131/3/5
f 137/3/5 133/3/5 132/3/5
f 138/3/5 133/3/5 137/3/5
f 139/1/5 134/1/5 133/1/5
f 139/3/5 133/3/5 138/3/5
f 140/3/5 136/3/5 135/3/5
f 140/1/5 134/1/5 139/1/5
f 140/3/5 135/3/5 134/3/5
f 141/3/5 136/3/5 140/3/5
f 142/3/5 136/3/5 141/3/5
f 144/1/5 139/1/5 138/1/5
f 144/1/5 141/1/5 140/1/5
f 144/1/5 140/1/5 139/1/5
f 145/1/5 141/1/5 144/1/5
f 146/1/5 141/1/5 145/1/5
f 147/1/5 141/1/5 146/1/5
f 149/3/5 144/3/5 143/3/5
f 149/3/5 145/3/5 144/3/5
f 150/3/5 145/3/5 149/3/5
f 151/1/5 146/1/5 145/1/5
f 151/3/5 145/3/5 150/3/5
f 152/3/5 148/3/5 147/3/5
f 152/1/5 146/1/5 151/1/5
f 152/3/5 147/3/5 146/3/5
f 153/3/5 148/3/5 152/3/5
f 154/3/5 148/3/5 153/3/5
f 155/1/5 151/1/5 150/1/5
f 155/1/5 153/1/5 152/1/5
f 155/1/5 152/1/5 151/1/5
f 156/1/5 153/1/5 155/1/5
f 157/3/6 158/3/6 161/3/6
f 161/3/6 158/3/6 162/3/6
f 159/3/6 160/3/6 163/3/6
f 163/3/6 160/3/6 164/3/6
f 165/3/6 166/3/6 169/3/6
f 169/3/6 166/3/6 170/3/6
f 167/3/6 168/3/6 171/3/6
f 171/3/6 168/3/6 172/3/6
f 173/1/6 174/1/6 175/1/6
f 175/1/6 174/1/6 176/1/6
f 177/1/6 178/1/6 179/1/6
f 179/1/6 178/1/6 180/1/6
f 180/1/6 178/1/6 181/1/6
f 181/1/6 178/1/6 182/1/6
f 177/1/6 179/1/6 183/1/6
f 179/5/6 180/5/6 184/5/6
f 183/1/6 179/1/6 184/1/6
f 180/1/6 181/1/6 185/1/6
f 184/5/6 180/5/6 185/5/6
f 181/5/6 182/5/6 186/5/6
f 185/1/6 181/1/6 186/1/6
f 182/1/6 178/1/6 187/1/6
f 186/5/6 182/5/6 187/5/6
f 187/1/6 178/1/6 188/1/6
f 189/1/6 190/1/6 191/1/6
f 191/1/6 190/1/6 192/1/6
